<?xml version="1.0" encoding="utf-8"?>
<!-- Generator: Adobe Illustrator 16.0.4, SVG Export Plug-In . SVG Version: 6.00 Build 0)  -->
<!DOCTYPE svg PUBLIC "-//W3C//DTD SVG 1.1//EN" "http://www.w3.org/Graphics/SVG/1.1/DTD/svg11.dtd">
<svg version="1.1" id="Layer_1" xmlns="http://www.w3.org/2000/svg" xmlns:xlink="http://www.w3.org/1999/xlink" x="0px" y="0px"
	 width="100px" height="100px" viewBox="0 0 100 100" enable-background="new 0 0 100 100" xml:space="preserve">
<g>
	<path fill="#FFFFFF" d="M50,0.003C22.43,0.003,0,22.431,0,50c0,27.568,22.43,49.997,50,49.997c27.572,0,50-22.429,50-49.997
		C100,22.431,77.572,0.003,50,0.003z M50,94.229C25.611,94.229,5.769,74.389,5.769,50C5.769,25.613,25.611,5.772,50,5.772
		c24.389,0,44.23,19.841,44.23,44.228C94.23,74.389,74.389,94.229,50,94.229z"/>
</g>
<g>
	<path fill="#FFFFFF" d="M59.447,36.474L50,45.921l-9.447-9.448c-1.126-1.126-2.952-1.127-4.079,0c-1.126,1.126-1.126,2.953,0,4.079
		L45.921,50l-9.448,9.447c-1.126,1.127-1.126,2.953,0,4.078c1.128,1.129,2.953,1.127,4.08,0.002L50,54.079l9.447,9.446
		c1.126,1.127,2.953,1.127,4.078,0.002c1.129-1.129,1.127-2.954,0-4.08L54.079,50l9.446-9.447c1.127-1.125,1.129-2.952,0-4.079
		C62.4,35.347,60.573,35.348,59.447,36.474z"/>
</g>
</svg>
