<?xml version="1.0" encoding="utf-8"?>
<!-- Generator: Adobe Illustrator 16.0.4, SVG Export Plug-In . SVG Version: 6.00 Build 0)  -->
<!DOCTYPE svg PUBLIC "-//W3C//DTD SVG 1.1//EN" "http://www.w3.org/Graphics/SVG/1.1/DTD/svg11.dtd">
<svg version="1.1" id="Layer_1" xmlns="http://www.w3.org/2000/svg" xmlns:xlink="http://www.w3.org/1999/xlink" x="0px" y="0px"
	 width="100px" height="100px" viewBox="0 0 100 100" enable-background="new 0 0 100 100" xml:space="preserve">
<g id="Captions" display="none">
	<rect x="-744" display="inline" width="185" height="99"/>
	<rect x="-552" y="-36" display="inline" width="100" height="30"/>
	<text transform="matrix(1 0 0 1 -486 -19.5)" display="inline" font-family="'Helvetica'" font-size="2.4">http://thenounproject.com</text>
	<text transform="matrix(1 0 0 1 -544.834 -24.5)" display="inline" font-family="'Helvetica-Bold'" font-size="6.1578">The Noun Project</text>
	<text transform="matrix(1 0 0 1 -543.7139 -19.7002)" display="inline" font-family="'Helvetica-Bold'" font-size="4">Icon Template</text>
	<text transform="matrix(1 0 0 1 -730.5 10.5)" display="inline" font-family="'Helvetica-Bold'" font-size="6.1578">Reminders</text>
	<line display="inline" fill="none" stroke="#FFFFFF" stroke-miterlimit="10" x1="-544" y1="-14.5" x2="-534" y2="-14.5"/>
	<line display="inline" fill="none" stroke="#FFFFFF" stroke-miterlimit="10" x1="-731" y1="16.5" x2="-714" y2="16.5"/>
	<g display="inline">
		<g>
			<g>
				<rect x="-722.802" y="31.318" width="8.721" height="8.642"/>
				<path d="M-716.455,42.312h4.747v-4.703h-4.747V42.312z M-711.266,42.749h-5.63V37.17h5.63V42.749L-711.266,42.749z
					 M-718.221,44.062h8.279v-8.203h-8.279V44.062L-718.221,44.062z M-709.5,44.5h-9.163v-9.079h9.163V44.5L-709.5,44.5z"/>
				<polygon points="-718.149,44.133 -718.292,43.991 -710.013,35.787 -709.871,35.929 				"/>
			</g>
		</g>
	</g>
	<rect x="-731" y="58" display="inline" fill="none" width="35" height="32.5"/>
	<text transform="matrix(1 0 0 1 -731 60.1572)" display="inline" font-family="'Helvetica-Bold'" font-size="3">Strokes</text>
	<text transform="matrix(1 0 0 1 -731 65.1572)" display="inline" font-family="'Helvetica'" font-size="2.4">Try to keep strokes at 4px</text>
	<text transform="matrix(1 0 0 1 -731 70.1572)" display="inline" font-family="'Helvetica'" font-size="2.4">Minimum stroke weight is 2px</text>
	<text transform="matrix(1 0 0 1 -731 74.6572)" display="inline" font-family="'Helvetica'" font-size="2.4">For thicker strokes use even </text>
	<text transform="matrix(1 0 0 1 -731 77.6572)" display="inline" font-family="'Helvetica'" font-size="2.4">numbers: 6px, 8px etc.</text>
	<text transform="matrix(1 0 0 1 -731 82.1572)" display="inline" font-family="'Helvetica-Bold'" font-size="2.4">Remember to expand strokes </text>
	<text transform="matrix(1 0 0 1 -731 85.1572)" display="inline" font-family="'Helvetica-Bold'" font-size="2.4">before saving as an SVG </text>
	<rect x="-688.5" y="58" display="inline" fill="none" width="35" height="32.5"/>
	<text transform="matrix(1 0 0 1 -688.5 60.1572)" display="inline" font-family="'Helvetica-Bold'" font-size="3">Size</text>
	<text transform="matrix(1 0 0 1 -688.5 65.1572)" display="inline" font-family="'Helvetica'" font-size="2.4">Cannot be wider or taller than </text>
	<text transform="matrix(1 0 0 1 -688.5 68.6572)" display="inline" font-family="'Helvetica'" font-size="2.4">100px (artboar size)</text>
	<text transform="matrix(1 0 0 1 -688.5 73.6572)" display="inline" font-family="'Helvetica'" font-size="2.4">Scale your icon to fill as much of </text>
	<text transform="matrix(1 0 0 1 -688.5 76.6572)" display="inline" font-family="'Helvetica'" font-size="2.4">the Safe Area as possible (within </text>
	<text transform="matrix(1 0 0 1 -688.5 79.6572)" display="inline" font-family="'Helvetica'" font-size="2.4">the guides)</text>
	<rect x="-646" y="58" display="inline" fill="none" width="35" height="32.5"/>
	<text transform="matrix(1 0 0 1 -646 60.1572)" display="inline" font-family="'Helvetica-Bold'" font-size="3">Ungroup</text>
	<text transform="matrix(1 0 0 1 -646 65.1572)" display="inline" font-family="'Helvetica'" font-size="2.4">If your design has more than one </text>
	<text transform="matrix(1 0 0 1 -646 68.1572)" display="inline" font-family="'Helvetica'" font-size="2.4">shape, make sure to ungroup.</text>
	<rect x="-602" y="58" display="inline" fill="none" width="35" height="32.5"/>
	<text transform="matrix(1 0 0 1 -602 60.1572)" display="inline" font-family="'Helvetica-Bold'" font-size="3">Save as</text>
	<text transform="matrix(1 0 0 1 -602 65.1572)" display="inline" font-family="'Helvetica'" font-size="2.4">Save as .SVG and make sure </text>
	<text transform="matrix(1 0 0 1 -602 68.1572)" display="inline" font-family="'Helvetica'" font-size="2.4">“Use Artboards” is checked.</text>
	<text transform="matrix(1.0074 0 0 1 -677.542 30.5938)" display="inline" font-family="'Helvetica'" font-size="2.5731">100px</text>
	<text transform="matrix(1.0074 0 0 1 -593 39)" display="inline" font-family="'Helvetica-Bold'" font-size="5.1462">.SVG</text>
	<rect x="-678.514" y="34.815" display="inline" width="10.261" height="10.185"/>
	<rect x="-678.477" y="31.766" display="inline" width="0.522" height="2.337"/>
	<rect x="-668.812" y="31.766" display="inline" width="0.523" height="2.337"/>
	<rect x="-679" y="32.337" display="inline" width="11.233" height="0.572"/>
	<g display="inline">
		<rect x="-635.805" y="33.844" width="10.305" height="10.156"/>
		<rect x="-628.809" y="28.707" width="3.308" height="3.261"/>
	</g>
	<rect x="-730.5" y="22.5" display="inline" stroke="#FFFFFF" stroke-miterlimit="10" width="30" height="30"/>
	<rect x="-688.5" y="22.5" display="inline" stroke="#FFFFFF" stroke-miterlimit="10" width="30" height="30"/>
	<rect x="-645.5" y="22.5" display="inline" stroke="#FFFFFF" stroke-miterlimit="10" width="30" height="30"/>
	<rect x="-601.5" y="22.5" display="inline" stroke="#FFFFFF" stroke-miterlimit="10" width="30" height="30"/>
</g>
<g id="Your_Icon">
	<g>
		<g>
			<path fill="#FFFFFF" d="M50,95C25.186,95,5,74.812,5,50C5,25.187,25.186,5,50,5c24.813,0,45,20.187,45,45
				C95,74.812,74.813,95,50,95z M50,13.491c-20.132,0-36.509,16.377-36.509,36.509S29.868,86.51,50,86.51
				c20.131,0,36.511-16.378,36.511-36.51S70.131,13.491,50,13.491z"/>
		</g>
		<g>
			<g>
				<path fill="#FFFFFF" d="M39.203,70.947c0.198-0.876,0.493-2.034,0.889-3.476l5.336-19.49c0.058-0.227,0.106-0.453,0.148-0.679
					c0.042-0.225,0.063-0.437,0.063-0.635c0-1.157-0.365-1.877-1.099-2.161c-0.733-0.282-2.074-0.465-4.02-0.551v-2.288
					c1.628-0.113,3.991-0.346,7.089-0.7c3.1-0.352,5.294-0.657,6.583-0.91l3.704-0.721L51.16,64.04
					c-0.564,2.117-0.944,3.587-1.143,4.407c-0.508,2.092-0.764,3.447-0.764,4.066c0,0.623,0.142,1.026,0.425,1.208
					c0.282,0.185,0.593,0.276,0.934,0.276c0.878,0,1.967-0.748,3.268-2.246c1.306-1.497,2.451-3.065,3.443-4.704l1.905,1.229
					c-2.828,4.152-4.993,6.948-6.494,8.39c-2.46,2.373-5.089,3.56-7.89,3.56c-1.584,0-3.006-0.485-4.264-1.463
					c-1.259-0.973-1.887-2.463-1.887-4.471C38.693,73.59,38.863,72.473,39.203,70.947z M59.61,21.667
					c1.13,1.13,1.695,2.501,1.695,4.111s-0.565,2.988-1.695,4.131c-1.13,1.145-2.498,1.716-4.111,1.716
					c-1.609,0-2.984-0.572-4.131-1.716c-1.144-1.145-1.714-2.521-1.714-4.131s0.572-2.979,1.714-4.111
					c1.146-1.129,2.521-1.694,4.131-1.694C57.109,19.972,58.48,20.537,59.61,21.667z"/>
			</g>
		</g>
	</g>
</g>
</svg>
