<?xml version="1.0" encoding="utf-8"?>
<!-- Generator: Adobe Illustrator 16.0.4, SVG Export Plug-In . SVG Version: 6.00 Build 0)  -->
<!DOCTYPE svg PUBLIC "-//W3C//DTD SVG 1.1//EN" "http://www.w3.org/Graphics/SVG/1.1/DTD/svg11.dtd">
<svg version="1.1" id="Layer_1" xmlns="http://www.w3.org/2000/svg" xmlns:xlink="http://www.w3.org/1999/xlink" x="0px" y="0px"
	 width="100px" height="100px" viewBox="0 0 100 100" enable-background="new 0 0 100 100" xml:space="preserve">
<g>
	<path fill="#FFFFFF" d="M10.612,55.383h61.427c1.339,0,2.421-1.081,2.421-2.417s-1.082-2.417-2.421-2.417H10.765l14.383-15.417
		c0.945-0.942,0.945-2.474,0-3.417c-0.945-0.945-2.475-0.945-3.419,0L2,53.018l19.427,21.455c0.473,0.471,1.091,0.705,1.71,0.705
		c0.619,0,1.237-0.234,1.71-0.705c0.945-0.947,0.945-2.477,0-3.422L10.612,55.383z"/>
	<path fill="#FFFFFF" d="M89.07,7.04H50.372c-5.336,0-9.676,4.337-9.676,9.667v21.759h4.838V16.707c0-2.662,2.169-4.835,4.838-4.835
		H89.07c2.668,0,4.838,2.173,4.838,4.835v67.684c0,2.666-2.17,4.836-4.838,4.836H50.372c-2.668,0-4.838-2.17-4.838-4.836V67.469
		h-4.838v16.922c0,5.334,4.34,9.67,9.676,9.67H89.07c5.337,0,9.677-4.336,9.677-9.67V16.707C98.747,11.377,94.407,7.04,89.07,7.04z"
		/>
</g>
</svg>
